<svg width="74" height="94" viewBox="0 0 74 94" fill="none" xmlns="http://www.w3.org/2000/svg">
<path d="M7.20297 80.112H9.51897V81H6.12697V75.216H7.20297V80.112ZM15.3438 81H14.5118C14.4184 81 14.3411 80.9773 14.2798 80.932C14.2211 80.884 14.1784 80.8253 14.1518 80.756L13.7198 79.576H11.3238L10.8918 80.756C10.8704 80.8173 10.8278 80.8733 10.7638 80.924C10.7024 80.9747 10.6264 81 10.5358 81H9.69978L11.9718 75.216H13.0718L15.3438 81ZM11.5998 78.816H13.4438L12.7398 76.892C12.7078 76.8067 12.6718 76.7067 12.6318 76.592C12.5944 76.4747 12.5571 76.348 12.5198 76.212C12.4824 76.348 12.4451 76.4747 12.4078 76.592C12.3731 76.7093 12.3384 76.812 12.3038 76.9L11.5998 78.816ZM16.5035 75.216C16.5515 75.216 16.5915 75.2187 16.6235 75.224C16.6555 75.2267 16.6835 75.2347 16.7075 75.248C16.7341 75.2587 16.7595 75.276 16.7835 75.3C16.8075 75.3213 16.8341 75.3507 16.8635 75.388L19.8995 79.256C19.8888 79.1627 19.8808 79.072 19.8755 78.984C19.8728 78.8933 19.8715 78.8093 19.8715 78.732V75.216H20.8195V81H20.2635C20.1781 81 20.1075 80.9867 20.0515 80.96C19.9955 80.9333 19.9408 80.8853 19.8875 80.816L16.8635 76.964C16.8715 77.0493 16.8768 77.1347 16.8795 77.22C16.8848 77.3027 16.8875 77.3787 16.8875 77.448V81H15.9395V75.216H16.5035ZM23.9303 81.908C23.949 81.908 23.9677 81.9107 23.9863 81.916C24.0077 81.9213 24.0303 81.928 24.0543 81.936C24.081 81.944 24.109 81.9507 24.1383 81.956C24.1703 81.9613 24.2077 81.964 24.2503 81.964C24.3383 81.964 24.4037 81.9467 24.4463 81.912C24.4917 81.88 24.5143 81.84 24.5143 81.792C24.5143 81.7147 24.4663 81.6587 24.3703 81.624C24.2743 81.592 24.1263 81.5627 23.9263 81.536L24.0743 81.044C23.6983 81.004 23.361 80.904 23.0623 80.744C22.7637 80.5813 22.509 80.372 22.2983 80.116C22.0903 79.8573 21.9303 79.5587 21.8183 79.22C21.7063 78.8787 21.6503 78.508 21.6503 78.108C21.6503 77.6733 21.7223 77.276 21.8663 76.916C22.0103 76.5533 22.213 76.2413 22.4743 75.98C22.7357 75.7187 23.0477 75.516 23.4103 75.372C23.7757 75.2253 24.1783 75.152 24.6183 75.152C25.0477 75.152 25.4223 75.2213 25.7423 75.36C26.065 75.496 26.341 75.6773 26.5703 75.904L26.2103 76.404C26.189 76.436 26.161 76.464 26.1263 76.488C26.0943 76.512 26.049 76.524 25.9903 76.524C25.929 76.524 25.8663 76.5 25.8023 76.452C25.7383 76.404 25.657 76.352 25.5583 76.296C25.4597 76.24 25.3343 76.188 25.1823 76.14C25.033 76.092 24.8423 76.068 24.6103 76.068C24.3383 76.068 24.0877 76.116 23.8583 76.212C23.6317 76.3053 23.4357 76.44 23.2703 76.616C23.1077 76.792 22.9797 77.0067 22.8863 77.26C22.7957 77.5107 22.7503 77.7933 22.7503 78.108C22.7503 78.4333 22.7957 78.7227 22.8863 78.976C22.9797 79.2293 23.105 79.4427 23.2623 79.616C23.4197 79.7893 23.605 79.9227 23.8183 80.016C24.0317 80.1067 24.261 80.152 24.5063 80.152C24.653 80.152 24.785 80.144 24.9023 80.128C25.0223 80.112 25.1317 80.0867 25.2303 80.052C25.3317 80.0173 25.4263 79.9733 25.5143 79.92C25.605 79.864 25.6943 79.796 25.7823 79.716C25.809 79.692 25.837 79.6733 25.8663 79.66C25.8957 79.644 25.9277 79.636 25.9623 79.636C26.021 79.636 26.0717 79.6587 26.1143 79.704L26.5383 80.164C26.325 80.4307 26.0663 80.64 25.7623 80.792C25.461 80.9413 25.1037 81.0293 24.6903 81.056L24.6423 81.22C24.8797 81.2787 25.0463 81.3573 25.1423 81.456C25.2383 81.5573 25.2863 81.676 25.2863 81.812C25.2863 81.9 25.2623 81.98 25.2143 82.052C25.169 82.124 25.1037 82.1853 25.0183 82.236C24.933 82.2867 24.8303 82.3253 24.7103 82.352C24.5903 82.3813 24.4583 82.396 24.3143 82.396C24.205 82.396 24.1023 82.388 24.0063 82.372C23.913 82.356 23.8197 82.3333 23.7263 82.304L23.8183 82C23.8343 81.9387 23.8717 81.908 23.9303 81.908ZM32.4375 81H31.6055C31.5122 81 31.4349 80.9773 31.3735 80.932C31.3149 80.884 31.2722 80.8253 31.2455 80.756L30.8135 79.576H28.4175L27.9855 80.756C27.9642 80.8173 27.9215 80.8733 27.8575 80.924C27.7962 80.9747 27.7202 81 27.6295 81H26.7935L29.0655 75.216H30.1655L32.4375 81ZM28.6935 78.816H30.5375L29.8335 76.892C29.8015 76.8067 29.7655 76.7067 29.7255 76.592C29.6882 76.4747 29.6509 76.348 29.6135 76.212C29.5762 76.348 29.5389 76.4747 29.5015 76.592C29.4669 76.7093 29.4322 76.812 29.3975 76.9L28.6935 78.816ZM35.9372 78.6C35.9826 78.6853 36.0239 78.7747 36.0612 78.868C36.1012 78.9587 36.1399 79.0507 36.1772 79.144C36.2146 79.048 36.2532 78.9533 36.2932 78.86C36.3332 78.7667 36.3759 78.6773 36.4212 78.592L38.1332 75.388C38.1546 75.348 38.1759 75.316 38.1972 75.292C38.2212 75.268 38.2466 75.2507 38.2732 75.24C38.3026 75.2293 38.3346 75.2227 38.3692 75.22C38.4039 75.2173 38.4452 75.216 38.4932 75.216H39.3052V81H38.3572V77.264C38.3572 77.1947 38.3586 77.1187 38.3612 77.036C38.3666 76.9533 38.3732 76.8693 38.3812 76.784L36.6332 80.064C36.5932 80.1387 36.5412 80.1973 36.4772 80.24C36.4132 80.28 36.3386 80.3 36.2532 80.3H36.1052C36.0199 80.3 35.9452 80.28 35.8812 80.24C35.8172 80.1973 35.7652 80.1387 35.7252 80.064L33.9532 76.772C33.9639 76.86 33.9706 76.9467 33.9732 77.032C33.9786 77.1147 33.9812 77.192 33.9812 77.264V81H33.0332V75.216H33.8452C33.8932 75.216 33.9346 75.2173 33.9692 75.22C34.0039 75.2227 34.0346 75.2293 34.0612 75.24C34.0906 75.2507 34.1172 75.268 34.1412 75.292C34.1652 75.316 34.1879 75.348 34.2092 75.388L35.9372 78.6ZM44.1187 75.216V76.072H41.5547V77.676H43.5747V78.504H41.5547V80.14H44.1187V81H40.4707V75.216H44.1187ZM45.6128 75.216C45.6608 75.216 45.7008 75.2187 45.7328 75.224C45.7648 75.2267 45.7928 75.2347 45.8168 75.248C45.8435 75.2587 45.8688 75.276 45.8928 75.3C45.9168 75.3213 45.9435 75.3507 45.9728 75.388L49.0088 79.256C48.9982 79.1627 48.9902 79.072 48.9848 78.984C48.9822 78.8933 48.9808 78.8093 48.9808 78.732V75.216H49.9288V81H49.3728C49.2875 81 49.2168 80.9867 49.1608 80.96C49.1048 80.9333 49.0502 80.8853 48.9968 80.816L45.9728 76.964C45.9808 77.0493 45.9862 77.1347 45.9888 77.22C45.9942 77.3027 45.9968 77.3787 45.9968 77.448V81H45.0488V75.216H45.6128ZM55.1717 75.216V76.1H53.4317V81H52.3557V76.1H50.6077V75.216H55.1717ZM61.089 78.108C61.089 78.532 61.0184 78.9253 60.877 79.288C60.7357 79.648 60.537 79.96 60.281 80.224C60.025 80.488 59.717 80.6947 59.357 80.844C58.997 80.9907 58.5984 81.064 58.161 81.064C57.7237 81.064 57.3237 80.9907 56.961 80.844C56.601 80.6947 56.2917 80.488 56.033 80.224C55.777 79.96 55.5784 79.648 55.437 79.288C55.2957 78.9253 55.225 78.532 55.225 78.108C55.225 77.684 55.2957 77.292 55.437 76.932C55.5784 76.5693 55.777 76.256 56.033 75.992C56.2917 75.728 56.601 75.5227 56.961 75.376C57.3237 75.2267 57.7237 75.152 58.161 75.152C58.5984 75.152 58.997 75.2267 59.357 75.376C59.717 75.5253 60.025 75.732 60.281 75.996C60.537 76.2573 60.7357 76.5693 60.877 76.932C61.0184 77.292 61.089 77.684 61.089 78.108ZM59.985 78.108C59.985 77.7907 59.9424 77.5067 59.857 77.256C59.7744 77.0027 59.6544 76.788 59.497 76.612C59.3397 76.436 59.1477 76.3013 58.921 76.208C58.697 76.1147 58.4437 76.068 58.161 76.068C57.8784 76.068 57.6237 76.1147 57.397 76.208C57.1704 76.3013 56.977 76.436 56.817 76.612C56.6597 76.788 56.5384 77.0027 56.453 77.256C56.3677 77.5067 56.325 77.7907 56.325 78.108C56.325 78.4253 56.3677 78.7107 56.453 78.964C56.5384 79.2147 56.6597 79.428 56.817 79.604C56.977 79.7773 57.1704 79.9107 57.397 80.004C57.6237 80.0973 57.8784 80.144 58.161 80.144C58.4437 80.144 58.697 80.0973 58.921 80.004C59.1477 79.9107 59.3397 79.7773 59.497 79.604C59.6544 79.428 59.7744 79.2147 59.857 78.964C59.9424 78.7107 59.985 78.4253 59.985 78.108ZM68.6223 78.108C68.6223 78.532 68.5517 78.9213 68.4103 79.276C68.269 79.6307 68.0703 79.936 67.8143 80.192C67.5583 80.448 67.2503 80.6467 66.8903 80.788C66.5303 80.9293 66.1317 81 65.6943 81H63.4863V75.216H65.6943C66.1317 75.216 66.5303 75.288 66.8903 75.432C67.2503 75.5733 67.5583 75.772 67.8143 76.028C68.0703 76.2813 68.269 76.5853 68.4103 76.94C68.5517 77.2947 68.6223 77.684 68.6223 78.108ZM67.5223 78.108C67.5223 77.7907 67.4797 77.5067 67.3943 77.256C67.309 77.0027 67.1877 76.7893 67.0303 76.616C66.873 76.44 66.681 76.3053 66.4543 76.212C66.2303 76.1187 65.977 76.072 65.6943 76.072H64.5703V80.144H65.6943C65.977 80.144 66.2303 80.0973 66.4543 80.004C66.681 79.9107 66.873 79.7773 67.0303 79.604C67.1877 79.428 67.309 79.2147 67.3943 78.964C67.4797 78.7107 67.5223 78.4253 67.5223 78.108ZM73.1109 75.216V76.072H70.5469V77.676H72.5669V78.504H70.5469V80.14H73.1109V81H69.4629V75.216H73.1109ZM12.1636 86.216C12.2116 86.216 12.2516 86.2187 12.2836 86.224C12.3156 86.2267 12.3436 86.2347 12.3676 86.248C12.3943 86.2587 12.4196 86.276 12.4436 86.3C12.4676 86.3213 12.4943 86.3507 12.5236 86.388L15.5596 90.256C15.549 90.1627 15.541 90.072 15.5356 89.984C15.533 89.8933 15.5316 89.8093 15.5316 89.732V86.216H16.4796V92H15.9236C15.8383 92 15.7676 91.9867 15.7116 91.96C15.6556 91.9333 15.601 91.8853 15.5476 91.816L12.5236 87.964C12.5316 88.0493 12.537 88.1347 12.5396 88.22C12.545 88.3027 12.5476 88.3787 12.5476 88.448V92H11.5996V86.216H12.1636ZM23.1945 89.108C23.1945 89.532 23.1238 89.9253 22.9825 90.288C22.8412 90.648 22.6425 90.96 22.3865 91.224C22.1305 91.488 21.8225 91.6947 21.4625 91.844C21.1025 91.9907 20.7038 92.064 20.2665 92.064C19.8292 92.064 19.4292 91.9907 19.0665 91.844C18.7065 91.6947 18.3972 91.488 18.1385 91.224C17.8825 90.96 17.6838 90.648 17.5425 90.288C17.4012 89.9253 17.3305 89.532 17.3305 89.108C17.3305 88.684 17.4012 88.292 17.5425 87.932C17.6838 87.5693 17.8825 87.256 18.1385 86.992C18.3972 86.728 18.7065 86.5227 19.0665 86.376C19.4292 86.2267 19.8292 86.152 20.2665 86.152C20.7038 86.152 21.1025 86.2267 21.4625 86.376C21.8225 86.5253 22.1305 86.732 22.3865 86.996C22.6425 87.2573 22.8412 87.5693 22.9825 87.932C23.1238 88.292 23.1945 88.684 23.1945 89.108ZM22.0905 89.108C22.0905 88.7907 22.0478 88.5067 21.9625 88.256C21.8798 88.0027 21.7598 87.788 21.6025 87.612C21.4452 87.436 21.2532 87.3013 21.0265 87.208C20.8025 87.1147 20.5492 87.068 20.2665 87.068C19.9838 87.068 19.7292 87.1147 19.5025 87.208C19.2758 87.3013 19.0825 87.436 18.9225 87.612C18.7652 87.788 18.6438 88.0027 18.5585 88.256C18.4732 88.5067 18.4305 88.7907 18.4305 89.108C18.4305 89.4253 18.4732 89.7107 18.5585 89.964C18.6438 90.2147 18.7652 90.428 18.9225 90.604C19.0825 90.7773 19.2758 90.9107 19.5025 91.004C19.7292 91.0973 19.9838 91.144 20.2665 91.144C20.5492 91.144 20.8025 91.0973 21.0265 91.004C21.2532 90.9107 21.4452 90.7773 21.6025 90.604C21.7598 90.428 21.8798 90.2147 21.9625 89.964C22.0478 89.7107 22.0905 89.4253 22.0905 89.108ZM27.8084 86.216V87.1H26.0684V92H24.9924V87.1H23.2444V86.216H27.8084ZM32.9883 92H32.1563C32.063 92 31.9856 91.9773 31.9243 91.932C31.8656 91.884 31.823 91.8253 31.7963 91.756L31.3643 90.576H28.9683L28.5363 91.756C28.515 91.8173 28.4723 91.8733 28.4083 91.924C28.347 91.9747 28.271 92 28.1803 92H27.3443L29.6163 86.216H30.7163L32.9883 92ZM29.2443 89.816H31.0883L30.3843 87.892C30.3523 87.8067 30.3163 87.7067 30.2763 87.592C30.239 87.4747 30.2016 87.348 30.1643 87.212C30.127 87.348 30.0896 87.4747 30.0523 87.592C30.0176 87.7093 29.983 87.812 29.9483 87.9L29.2443 89.816ZM36.684 87.268C36.6547 87.3267 36.62 87.368 36.58 87.392C36.5427 87.416 36.4973 87.428 36.444 87.428C36.3907 87.428 36.3307 87.408 36.264 87.368C36.1973 87.3253 36.1187 87.2787 36.028 87.228C35.9373 87.1773 35.8307 87.132 35.708 87.092C35.588 87.0493 35.4453 87.028 35.28 87.028C35.1307 87.028 35 87.0467 34.888 87.084C34.7787 87.1187 34.6853 87.168 34.608 87.232C34.5333 87.296 34.4773 87.3733 34.44 87.464C34.4027 87.552 34.384 87.6493 34.384 87.756C34.384 87.892 34.4213 88.0053 34.496 88.096C34.5733 88.1867 34.6747 88.264 34.8 88.328C34.9253 88.392 35.068 88.4493 35.228 88.5C35.388 88.5507 35.5507 88.6053 35.716 88.664C35.884 88.72 36.048 88.7867 36.208 88.864C36.368 88.9387 36.5107 89.0347 36.636 89.152C36.7613 89.2667 36.8613 89.408 36.936 89.576C37.0133 89.744 37.052 89.948 37.052 90.188C37.052 90.4493 37.0067 90.6947 36.916 90.924C36.828 91.1507 36.6973 91.3493 36.524 91.52C36.3533 91.688 36.144 91.8213 35.896 91.92C35.648 92.016 35.364 92.064 35.044 92.064C34.86 92.064 34.6787 92.0453 34.5 92.008C34.3213 91.9733 34.1493 91.9227 33.984 91.856C33.8213 91.7893 33.668 91.7093 33.524 91.616C33.3827 91.5227 33.256 91.4187 33.144 91.304L33.456 90.788C33.4853 90.7507 33.52 90.72 33.56 90.696C33.6027 90.6693 33.6493 90.656 33.7 90.656C33.7667 90.656 33.8387 90.684 33.916 90.74C33.9933 90.7933 34.084 90.8533 34.188 90.92C34.2947 90.9867 34.4187 91.048 34.56 91.104C34.704 91.1573 34.876 91.184 35.076 91.184C35.3827 91.184 35.62 91.112 35.788 90.968C35.956 90.8213 36.04 90.612 36.04 90.34C36.04 90.188 36.0013 90.064 35.924 89.968C35.8493 89.872 35.7493 89.792 35.624 89.728C35.4987 89.6613 35.356 89.6053 35.196 89.56C35.036 89.5147 34.8733 89.4653 34.708 89.412C34.5427 89.3587 34.38 89.2947 34.22 89.22C34.06 89.1453 33.9173 89.048 33.792 88.928C33.6667 88.808 33.5653 88.6587 33.488 88.48C33.4133 88.2987 33.376 88.076 33.376 87.812C33.376 87.6013 33.4173 87.396 33.5 87.196C33.5853 86.996 33.708 86.8187 33.868 86.664C34.0307 86.5093 34.2293 86.3853 34.464 86.292C34.6987 86.1987 34.9667 86.152 35.268 86.152C35.6093 86.152 35.924 86.2053 36.212 86.312C36.5 86.4187 36.7453 86.568 36.948 86.76L36.684 87.268ZM43.0679 86.216V87.072H40.5039V88.784H42.6679V89.644H40.5039V92H39.4199V86.216H43.0679ZM45.1241 92H44.0441V86.216H45.1241V92ZM49.5278 87.268C49.4984 87.3267 49.4638 87.368 49.4238 87.392C49.3864 87.416 49.3411 87.428 49.2878 87.428C49.2344 87.428 49.1744 87.408 49.1078 87.368C49.0411 87.3253 48.9624 87.2787 48.8718 87.228C48.7811 87.1773 48.6744 87.132 48.5518 87.092C48.4318 87.0493 48.2891 87.028 48.1238 87.028C47.9744 87.028 47.8438 87.0467 47.7318 87.084C47.6224 87.1187 47.5291 87.168 47.4518 87.232C47.3771 87.296 47.3211 87.3733 47.2838 87.464C47.2464 87.552 47.2278 87.6493 47.2278 87.756C47.2278 87.892 47.2651 88.0053 47.3398 88.096C47.4171 88.1867 47.5184 88.264 47.6438 88.328C47.7691 88.392 47.9118 88.4493 48.0718 88.5C48.2318 88.5507 48.3944 88.6053 48.5598 88.664C48.7278 88.72 48.8918 88.7867 49.0518 88.864C49.2118 88.9387 49.3544 89.0347 49.4798 89.152C49.6051 89.2667 49.7051 89.408 49.7798 89.576C49.8571 89.744 49.8958 89.948 49.8958 90.188C49.8958 90.4493 49.8504 90.6947 49.7598 90.924C49.6718 91.1507 49.5411 91.3493 49.3678 91.52C49.1971 91.688 48.9878 91.8213 48.7398 91.92C48.4918 92.016 48.2078 92.064 47.8878 92.064C47.7038 92.064 47.5224 92.0453 47.3438 92.008C47.1651 91.9733 46.9931 91.9227 46.8278 91.856C46.6651 91.7893 46.5118 91.7093 46.3678 91.616C46.2264 91.5227 46.0998 91.4187 45.9878 91.304L46.2998 90.788C46.3291 90.7507 46.3638 90.72 46.4038 90.696C46.4464 90.6693 46.4931 90.656 46.5438 90.656C46.6104 90.656 46.6824 90.684 46.7598 90.74C46.8371 90.7933 46.9278 90.8533 47.0318 90.92C47.1384 90.9867 47.2624 91.048 47.4038 91.104C47.5478 91.1573 47.7198 91.184 47.9198 91.184C48.2264 91.184 48.4638 91.112 48.6318 90.968C48.7998 90.8213 48.8838 90.612 48.8838 90.34C48.8838 90.188 48.8451 90.064 48.7678 89.968C48.6931 89.872 48.5931 89.792 48.4678 89.728C48.3424 89.6613 48.1998 89.6053 48.0398 89.56C47.8798 89.5147 47.7171 89.4653 47.5518 89.412C47.3864 89.3587 47.2238 89.2947 47.0638 89.22C46.9038 89.1453 46.7611 89.048 46.6358 88.928C46.5104 88.808 46.4091 88.6587 46.3318 88.48C46.2571 88.2987 46.2198 88.076 46.2198 87.812C46.2198 87.6013 46.2611 87.396 46.3438 87.196C46.4291 86.996 46.5518 86.8187 46.7118 86.664C46.8744 86.5093 47.0731 86.3853 47.3078 86.292C47.5424 86.1987 47.8104 86.152 48.1118 86.152C48.4531 86.152 48.7678 86.2053 49.0558 86.312C49.3438 86.4187 49.5891 86.568 49.7918 86.76L49.5278 87.268ZM54.6928 90.636C54.7515 90.636 54.8021 90.6587 54.8448 90.704L55.2688 91.164C55.0341 91.4547 54.7448 91.6773 54.4008 91.832C54.0595 91.9867 53.6488 92.064 53.1688 92.064C52.7395 92.064 52.3528 91.9907 52.0088 91.844C51.6675 91.6973 51.3755 91.4933 51.1328 91.232C50.8901 90.9707 50.7035 90.6587 50.5728 90.296C50.4448 89.9333 50.3808 89.5373 50.3808 89.108C50.3808 88.6733 50.4528 88.276 50.5968 87.916C50.7408 87.5533 50.9435 87.2413 51.2048 86.98C51.4661 86.7187 51.7781 86.516 52.1408 86.372C52.5061 86.2253 52.9088 86.152 53.3488 86.152C53.7781 86.152 54.1528 86.2213 54.4728 86.36C54.7955 86.496 55.0715 86.6773 55.3008 86.904L54.9408 87.404C54.9195 87.436 54.8915 87.464 54.8568 87.488C54.8248 87.512 54.7795 87.524 54.7208 87.524C54.6595 87.524 54.5968 87.5 54.5328 87.452C54.4688 87.404 54.3875 87.352 54.2888 87.296C54.1901 87.24 54.0648 87.188 53.9128 87.14C53.7635 87.092 53.5728 87.068 53.3408 87.068C53.0688 87.068 52.8181 87.116 52.5888 87.212C52.3621 87.3053 52.1661 87.44 52.0008 87.616C51.8381 87.792 51.7101 88.0067 51.6168 88.26C51.5261 88.5107 51.4808 88.7933 51.4808 89.108C51.4808 89.4333 51.5261 89.7227 51.6168 89.976C51.7101 90.2293 51.8355 90.4427 51.9928 90.616C52.1501 90.7893 52.3355 90.9227 52.5488 91.016C52.7621 91.1067 52.9915 91.152 53.2368 91.152C53.3835 91.152 53.5155 91.144 53.6328 91.128C53.7528 91.112 53.8621 91.0867 53.9608 91.052C54.0621 91.0173 54.1568 90.9733 54.2448 90.92C54.3355 90.864 54.4248 90.796 54.5128 90.716C54.5395 90.692 54.5675 90.6733 54.5968 90.66C54.6261 90.644 54.6581 90.636 54.6928 90.636ZM61.168 92H60.336C60.2427 92 60.1653 91.9773 60.104 91.932C60.0453 91.884 60.0027 91.8253 59.976 91.756L59.544 90.576H57.148L56.716 91.756C56.6947 91.8173 56.652 91.8733 56.588 91.924C56.5267 91.9747 56.4507 92 56.36 92H55.524L57.796 86.216H58.896L61.168 92ZM57.424 89.816H59.268L58.564 87.892C58.532 87.8067 58.496 87.7067 58.456 87.592C58.4187 87.4747 58.3813 87.348 58.344 87.212C58.3067 87.348 58.2693 87.4747 58.232 87.592C58.1973 87.7093 58.1627 87.812 58.128 87.9L57.424 89.816ZM62.9757 92H61.8957V86.216H62.9757V92ZM67.3793 87.268C67.35 87.3267 67.3153 87.368 67.2753 87.392C67.238 87.416 67.1926 87.428 67.1393 87.428C67.086 87.428 67.026 87.408 66.9593 87.368C66.8926 87.3253 66.814 87.2787 66.7233 87.228C66.6326 87.1773 66.526 87.132 66.4033 87.092C66.2833 87.0493 66.1406 87.028 65.9753 87.028C65.826 87.028 65.6953 87.0467 65.5833 87.084C65.474 87.1187 65.3806 87.168 65.3033 87.232C65.2286 87.296 65.1726 87.3733 65.1353 87.464C65.098 87.552 65.0793 87.6493 65.0793 87.756C65.0793 87.892 65.1166 88.0053 65.1913 88.096C65.2686 88.1867 65.37 88.264 65.4953 88.328C65.6206 88.392 65.7633 88.4493 65.9233 88.5C66.0833 88.5507 66.246 88.6053 66.4113 88.664C66.5793 88.72 66.7433 88.7867 66.9033 88.864C67.0633 88.9387 67.206 89.0347 67.3313 89.152C67.4566 89.2667 67.5566 89.408 67.6313 89.576C67.7086 89.744 67.7473 89.948 67.7473 90.188C67.7473 90.4493 67.702 90.6947 67.6113 90.924C67.5233 91.1507 67.3926 91.3493 67.2193 91.52C67.0486 91.688 66.8393 91.8213 66.5913 91.92C66.3433 92.016 66.0593 92.064 65.7393 92.064C65.5553 92.064 65.374 92.0453 65.1953 92.008C65.0166 91.9733 64.8446 91.9227 64.6793 91.856C64.5166 91.7893 64.3633 91.7093 64.2193 91.616C64.078 91.5227 63.9513 91.4187 63.8393 91.304L64.1513 90.788C64.1806 90.7507 64.2153 90.72 64.2553 90.696C64.298 90.6693 64.3446 90.656 64.3953 90.656C64.462 90.656 64.534 90.684 64.6113 90.74C64.6886 90.7933 64.7793 90.8533 64.8833 90.92C64.99 90.9867 65.114 91.048 65.2553 91.104C65.3993 91.1573 65.5713 91.184 65.7713 91.184C66.078 91.184 66.3153 91.112 66.4833 90.968C66.6513 90.8213 66.7353 90.612 66.7353 90.34C66.7353 90.188 66.6966 90.064 66.6193 89.968C66.5446 89.872 66.4446 89.792 66.3193 89.728C66.194 89.6613 66.0513 89.6053 65.8913 89.56C65.7313 89.5147 65.5686 89.4653 65.4033 89.412C65.238 89.3587 65.0753 89.2947 64.9153 89.22C64.7553 89.1453 64.6126 89.048 64.4873 88.928C64.362 88.808 64.2606 88.6587 64.1833 88.48C64.1086 88.2987 64.0713 88.076 64.0713 87.812C64.0713 87.6013 64.1126 87.396 64.1953 87.196C64.2806 86.996 64.4033 86.8187 64.5633 86.664C64.726 86.5093 64.9246 86.3853 65.1593 86.292C65.394 86.1987 65.662 86.152 65.9633 86.152C66.3046 86.152 66.6193 86.2053 66.9073 86.312C67.1953 86.4187 67.4406 86.568 67.6433 86.76L67.3793 87.268Z" fill="#0000FF"/>
<g filter="url(#filter0_d_202_36)">
<circle cx="36.695" cy="32.695" r="32.695" fill="#FEFEFE"/>
</g>
<path d="M22.5632 49.2283V17.3543C22.5871 17.3274 22.6061 17.2964 22.6191 17.2628C22.9279 15.6248 24.3964 14.5545 26.073 14.5637C31.7414 14.5932 37.4108 14.5816 43.0802 14.5699L43.4421 14.5692C43.9234 14.5586 44.4019 14.6446 44.8492 14.8222C45.2966 14.9997 45.7038 15.2652 46.0467 15.6028C47.3409 16.8395 48.6397 18.0728 49.9431 19.3027C50.73 20.0452 51.1075 20.9443 51.1029 22.0338C51.0923 24.4431 51.0942 26.8529 51.096 29.2628C51.0967 30.1901 51.0974 31.1174 51.0974 32.0447V32.5172C51.3669 32.1986 51.6287 31.886 51.8863 31.5785C52.499 30.847 53.0873 30.1447 53.6956 29.4601L53.7244 29.4277C54.148 28.9513 54.5889 28.4554 55.1184 28.1206C56.1408 27.4751 57.2594 27.4962 58.313 28.0776C59.3803 28.6654 59.9519 29.6066 60.0188 30.8316C60.0719 31.8296 59.6404 32.6353 59.0111 33.3742C56.4336 36.4114 53.8639 39.4539 51.3017 42.5015C51.1785 42.6587 51.1092 42.8513 51.1038 43.0509C51.096 44.0509 51.0965 45.0521 51.0971 46.0527C51.0975 46.9282 51.098 47.8033 51.0928 48.6771C51.0873 49.8124 50.6348 50.7454 49.6957 51.3844C49.4117 51.5745 49.082 51.701 48.7519 51.8277C48.6051 51.8841 48.4581 51.9404 48.3151 52.0025H25.3437C24.5009 51.7662 23.7066 51.4238 23.2229 50.6566C23.0298 50.3547 22.8918 50.0171 22.7536 49.6789C22.6918 49.5277 22.63 49.3765 22.5632 49.2283ZM42.3189 16.783C42.2849 16.7807 42.257 16.7785 42.233 16.7766C42.1827 16.7727 42.1503 16.7702 42.1174 16.7702H25.9859C25.199 16.7702 24.7592 17.228 24.7592 18.0392V48.5214C24.7592 49.3711 25.1944 49.8115 26.0418 49.8115H47.6234C48.469 49.8115 48.906 49.3711 48.906 48.5224V45.9642V45.2995C48.6875 45.4462 48.4608 45.5804 48.2271 45.7015C46.8374 46.3158 45.4466 46.9283 44.0459 47.5171C43.82 47.6021 43.574 47.619 43.3386 47.5656C42.6753 47.409 42.3941 46.8276 42.5727 46.0732C42.6753 45.6415 42.7785 45.2099 42.8818 44.7783C43.0441 44.0997 43.2065 43.4212 43.3661 42.7423C43.5493 41.9714 43.738 41.2115 44.2749 40.5834C45.7462 38.8603 47.2081 37.1289 48.6605 35.3893C48.8022 35.2169 48.8848 35.0034 48.8959 34.7805C48.9073 31.7409 48.9068 28.7019 48.9062 25.6626C48.9061 25.0225 48.906 24.3824 48.906 23.7423V23.3514H43.5081C42.7651 23.3514 42.3235 22.9137 42.3171 22.1776V17.39L42.3189 16.783ZM49.3897 41.3342L55.4363 34.1725L53.7753 32.7818L47.7233 39.9379L49.3897 41.3342ZM48.6412 21.1375L44.5378 17.2216V21.1375H48.6412ZM56.8728 32.4906C56.9531 32.3922 57.034 32.2965 57.114 32.202C57.3077 31.9731 57.4959 31.7507 57.6561 31.511C57.9584 31.0532 57.8393 30.4901 57.4252 30.133C57.0331 29.7979 56.4349 29.7769 56.0565 30.133C55.8481 30.3288 55.6619 30.5477 55.4705 30.7727C55.3817 30.877 55.2918 30.9827 55.1981 31.088L56.8728 32.4906ZM46.3051 41.6326C45.6999 42.1828 45.5801 42.8898 45.4602 43.5975C45.4053 43.9216 45.3503 44.2458 45.2488 44.5552C45.5334 44.4079 45.837 44.2993 46.1397 44.191C46.8249 43.946 47.5054 43.7026 47.9495 43.0161L46.3051 41.6326Z" fill="black"/>
<path d="M22.5632 49.2283V17.3543C22.5871 17.3274 22.6061 17.2964 22.6191 17.2628C22.9279 15.6248 24.3964 14.5545 26.073 14.5637C31.7414 14.5932 37.4108 14.5816 43.0802 14.5699L43.4421 14.5692C43.9234 14.5586 44.4019 14.6446 44.8492 14.8222C45.2966 14.9997 45.7038 15.2652 46.0467 15.6028C47.3409 16.8395 48.6397 18.0728 49.9431 19.3027C50.73 20.0452 51.1075 20.9443 51.1029 22.0338C51.0923 24.4431 51.0942 26.8529 51.096 29.2628C51.0967 30.1901 51.0974 31.1174 51.0974 32.0447V32.5172C51.3669 32.1986 51.6287 31.886 51.8863 31.5785C52.499 30.847 53.0873 30.1447 53.6956 29.4601L53.7244 29.4277C54.148 28.9513 54.5889 28.4554 55.1184 28.1206C56.1408 27.4751 57.2594 27.4962 58.313 28.0776C59.3803 28.6654 59.9519 29.6066 60.0188 30.8316C60.0719 31.8296 59.6404 32.6353 59.0111 33.3742C56.4336 36.4114 53.8639 39.4539 51.3017 42.5015C51.1785 42.6587 51.1092 42.8513 51.1038 43.0509C51.096 44.0509 51.0965 45.0521 51.0971 46.0527C51.0975 46.9282 51.098 47.8033 51.0928 48.6771C51.0873 49.8124 50.6348 50.7454 49.6957 51.3844C49.4117 51.5745 49.082 51.701 48.7519 51.8277C48.6051 51.8841 48.4581 51.9404 48.3151 52.0025H25.3437C24.5009 51.7662 23.7066 51.4238 23.2229 50.6566C23.0298 50.3547 22.8918 50.0171 22.7536 49.6789C22.6918 49.5277 22.63 49.3765 22.5632 49.2283ZM42.3189 16.783C42.2849 16.7807 42.257 16.7785 42.233 16.7766C42.1827 16.7727 42.1503 16.7702 42.1174 16.7702H25.9859C25.199 16.7702 24.7592 17.228 24.7592 18.0392V48.5214C24.7592 49.3711 25.1944 49.8115 26.0418 49.8115H47.6234C48.469 49.8115 48.906 49.3711 48.906 48.5224V45.9642V45.2995C48.6875 45.4462 48.4608 45.5804 48.2271 45.7015C46.8374 46.3158 45.4466 46.9283 44.0459 47.5171C43.82 47.6021 43.574 47.619 43.3386 47.5656C42.6753 47.409 42.3941 46.8276 42.5727 46.0732C42.6753 45.6415 42.7785 45.2099 42.8818 44.7783C43.0441 44.0997 43.2065 43.4212 43.3661 42.7423C43.5493 41.9714 43.738 41.2115 44.2749 40.5834C45.7462 38.8603 47.2081 37.1289 48.6605 35.3893C48.8022 35.2169 48.8848 35.0034 48.8959 34.7805C48.9073 31.7409 48.9068 28.7019 48.9062 25.6626C48.9061 25.0225 48.906 24.3824 48.906 23.7423V23.3514H43.5081C42.7651 23.3514 42.3235 22.9137 42.3171 22.1776V17.39L42.3189 16.783ZM49.3897 41.3342L55.4363 34.1725L53.7753 32.7818L47.7233 39.9379L49.3897 41.3342ZM48.6412 21.1375L44.5378 17.2216V21.1375H48.6412ZM56.8728 32.4906C56.9531 32.3922 57.034 32.2965 57.114 32.202C57.3077 31.9731 57.4959 31.7507 57.6561 31.511C57.9584 31.0532 57.8393 30.4901 57.4252 30.133C57.0331 29.7979 56.4349 29.7769 56.0565 30.133C55.8481 30.3288 55.6619 30.5477 55.4705 30.7727C55.3817 30.877 55.2918 30.9827 55.1981 31.088L56.8728 32.4906ZM46.3051 41.6326C45.6999 42.1828 45.5801 42.8898 45.4602 43.5975C45.4053 43.9216 45.3503 44.2458 45.2488 44.5552C45.5334 44.4079 45.837 44.2993 46.1397 44.191C46.8249 43.946 47.5054 43.7026 47.9495 43.0161L46.3051 41.6326Z" stroke="black"/>
<path d="M22.5632 49.2283C22.6304 49.3773 22.6926 49.5295 22.7549 49.6817C22.8928 50.019 23.0308 50.3564 23.2226 50.6598C23.7062 51.4268 24.5048 51.7691 25.3428 52.0052H22.5632V49.2283Z" fill="white"/>
<path d="M22.5632 49.2283C22.6304 49.3773 22.6926 49.5295 22.7549 49.6817C22.8928 50.019 23.0308 50.3564 23.2226 50.6598C23.7062 51.4268 24.5048 51.7691 25.3428 52.0052H22.5632V49.2283Z" stroke="black"/>
<path d="M42.319 16.7831V17.3865V22.1741C42.319 22.9065 42.7624 23.3469 43.51 23.3478H48.9079V23.7424C48.9079 27.4221 48.9079 31.1009 48.8978 34.7806C48.8867 35.0035 48.8041 35.217 48.6624 35.3895C47.2112 37.1291 45.7493 38.8604 44.2768 40.5835C43.7399 41.2116 43.5494 41.9715 43.368 42.7425C43.2083 43.4215 43.0459 44.1003 42.8835 44.7791C42.7803 45.2104 42.6771 45.6418 42.5746 46.0733C42.3914 46.8278 42.6772 47.4091 43.3405 47.5657C43.5759 47.6191 43.8218 47.6022 44.0477 47.5172C45.4485 46.9285 46.8392 46.3159 48.229 45.7016C48.4627 45.5805 48.6894 45.4463 48.9079 45.2997V45.9662V48.5243C48.9079 49.3776 48.4718 49.8134 47.6253 49.8134H26.0437C25.199 49.8134 24.7611 49.3731 24.7611 48.5234V18.0411C24.7611 17.2336 25.2009 16.7731 25.9878 16.7722C31.3625 16.7685 36.7397 16.7685 42.1193 16.7722C42.1539 16.7708 42.189 16.7735 42.2476 16.7779C42.2682 16.7795 42.2916 16.7812 42.319 16.7831ZM36.8331 30.0013H45.5365C46.2245 30.0013 46.7018 29.5563 46.7082 28.9218C46.7146 28.2672 46.2364 27.8113 45.5319 27.8103H28.1252C27.992 27.8072 27.859 27.8233 27.7303 27.8579C27.4761 27.9318 27.2575 28.0957 27.1156 28.319C26.9736 28.5423 26.9179 28.8097 26.9589 29.0711C27.0322 29.6122 27.4958 29.9986 28.0931 29.9995C31.0065 30.0019 33.9198 30.0025 36.8331 30.0013ZM36.8679 34.3887H28.1279C27.439 34.3887 26.9617 34.831 26.9544 35.4655C26.947 36.1201 27.4243 36.5788 28.1279 36.5788H45.5346C45.6679 36.5824 45.8009 36.5664 45.9295 36.5312C46.1839 36.4583 46.4029 36.2951 46.5455 36.0722C46.688 35.8494 46.7442 35.5822 46.7036 35.3208C46.6322 34.7788 46.1686 34.3906 45.5722 34.3897C42.6705 34.3872 39.7694 34.3869 36.8688 34.3887H36.8679ZM33.5249 23.3515H38.9357C39.6466 23.3515 40.1267 22.9056 40.1267 22.2528C40.1267 21.6 39.6448 21.1623 38.9357 21.1614H28.1508C28.0176 21.1569 27.8844 21.1711 27.7551 21.2035C27.5 21.2743 27.2795 21.4354 27.1347 21.6568C26.9898 21.8782 26.9306 22.1448 26.9681 22.4066C27.001 22.6691 27.1295 22.9103 27.3291 23.0841C27.5287 23.2579 27.7853 23.3521 28.0501 23.3487C29.8686 23.3515 31.6972 23.3515 33.5249 23.3515ZM33.5387 43.1627H38.9128C39.6347 43.1627 40.1147 42.7306 40.1221 42.0851C40.1294 41.4167 39.6484 40.9708 38.9118 40.9708H28.1655C27.4445 40.9708 26.9635 41.4021 26.9562 42.0485C26.9489 42.7168 27.4298 43.1618 28.1664 43.1627H33.5387Z" fill="white"/>
<path d="M42.319 16.7831V17.3865V22.1741C42.319 22.9065 42.7624 23.3469 43.51 23.3478H48.9079V23.7424C48.9079 27.4221 48.9079 31.1009 48.8978 34.7806C48.8867 35.0035 48.8041 35.217 48.6624 35.3895C47.2112 37.1291 45.7493 38.8604 44.2768 40.5835C43.7399 41.2116 43.5494 41.9715 43.368 42.7425C43.2083 43.4215 43.0459 44.1003 42.8835 44.7791C42.7803 45.2104 42.6771 45.6418 42.5746 46.0733C42.3914 46.8278 42.6772 47.4091 43.3405 47.5657C43.5759 47.6191 43.8218 47.6022 44.0477 47.5172C45.4485 46.9285 46.8392 46.3159 48.229 45.7016C48.4627 45.5805 48.6894 45.4463 48.9079 45.2997V45.9662V48.5243C48.9079 49.3776 48.4718 49.8134 47.6253 49.8134H26.0437C25.199 49.8134 24.7611 49.3731 24.7611 48.5234V18.0411C24.7611 17.2336 25.2009 16.7731 25.9878 16.7722C31.3625 16.7685 36.7397 16.7685 42.1193 16.7722C42.1539 16.7708 42.189 16.7735 42.2476 16.7779C42.2682 16.7795 42.2916 16.7812 42.319 16.7831ZM36.8331 30.0013H45.5365C46.2245 30.0013 46.7018 29.5563 46.7082 28.9218C46.7146 28.2672 46.2364 27.8113 45.5319 27.8103H28.1252C27.992 27.8072 27.859 27.8233 27.7303 27.8579C27.4761 27.9318 27.2575 28.0957 27.1156 28.319C26.9736 28.5423 26.9179 28.8097 26.9589 29.0711C27.0322 29.6122 27.4958 29.9986 28.0931 29.9995C31.0065 30.0019 33.9198 30.0025 36.8331 30.0013ZM36.8679 34.3887H28.1279C27.439 34.3887 26.9617 34.831 26.9544 35.4655C26.947 36.1201 27.4243 36.5788 28.1279 36.5788H45.5346C45.6679 36.5824 45.8009 36.5664 45.9295 36.5312C46.1839 36.4583 46.4029 36.2951 46.5455 36.0722C46.688 35.8494 46.7442 35.5822 46.7036 35.3208C46.6322 34.7788 46.1686 34.3906 45.5722 34.3897C42.6705 34.3872 39.7694 34.3869 36.8688 34.3887H36.8679ZM33.5249 23.3515H38.9357C39.6466 23.3515 40.1267 22.9056 40.1267 22.2528C40.1267 21.6 39.6448 21.1623 38.9357 21.1614H28.1508C28.0176 21.1569 27.8844 21.1711 27.7551 21.2035C27.5 21.2743 27.2795 21.4354 27.1347 21.6568C26.9898 21.8782 26.9306 22.1448 26.9681 22.4066C27.001 22.6691 27.1295 22.9103 27.3291 23.0841C27.5287 23.2579 27.7853 23.3521 28.0501 23.3487C29.8686 23.3515 31.6972 23.3515 33.5249 23.3515ZM33.5387 43.1627H38.9128C39.6347 43.1627 40.1147 42.7306 40.1221 42.0851C40.1294 41.4167 39.6484 40.9708 38.9118 40.9708H28.1655C27.4445 40.9708 26.9635 41.4021 26.9562 42.0485C26.9489 42.7168 27.4298 43.1618 28.1664 43.1627H33.5387Z" stroke="black"/>
<path d="M49.3899 41.3341L47.7234 39.9351L53.7754 32.7817L55.4382 34.1752L49.3899 41.3341Z" fill="white"/>
<path d="M49.3899 41.3341L47.7234 39.9351L53.7754 32.7817L55.4382 34.1752L49.3899 41.3341Z" stroke="black"/>
<path d="M48.6411 21.1375H44.5377V17.2216L48.6411 21.1375Z" fill="white"/>
<path d="M48.6411 21.1375H44.5377V17.2216L48.6411 21.1375Z" stroke="black"/>
<path d="M56.8722 32.4862L55.198 31.0822C55.2922 30.9764 55.3821 30.8702 55.4709 30.7654C55.6609 30.5411 55.8458 30.3228 56.0561 30.1276C56.4344 29.7734 57.0324 29.7944 57.4244 30.1276C57.843 30.4845 57.9574 31.0511 57.6552 31.5051C57.4982 31.7427 57.3134 31.9609 57.1237 32.1848C57.0401 32.2835 56.9556 32.3832 56.8722 32.4862Z" fill="white"/>
<path d="M56.8722 32.4862L55.198 31.0822C55.2922 30.9764 55.3821 30.8702 55.4709 30.7654C55.6609 30.5411 55.8458 30.3228 56.0561 30.1276C56.4344 29.7734 57.0324 29.7944 57.4244 30.1276C57.843 30.4845 57.9574 31.0511 57.6552 31.5051C57.4982 31.7427 57.3134 31.9609 57.1237 32.1848C57.0401 32.2835 56.9556 32.3832 56.8722 32.4862Z" stroke="black"/>
<path d="M46.3048 41.6327L47.9533 43.0157C47.5086 43.7008 46.8285 43.9445 46.1435 44.19C45.8411 44.2984 45.5378 44.4071 45.2534 44.5543C45.3529 44.2469 45.4067 43.9249 45.4605 43.6029C45.579 42.8934 45.6975 42.1842 46.3048 41.6327Z" fill="white"/>
<path d="M46.3048 41.6327L47.9533 43.0157C47.5086 43.7008 46.8285 43.9445 46.1435 44.19C45.8411 44.2984 45.5378 44.4071 45.2534 44.5543C45.3529 44.2469 45.4067 43.9249 45.4605 43.6029C45.579 42.8934 45.6975 42.1842 46.3048 41.6327Z" stroke="black"/>
<path d="M36.833 30.0012H28.0939C27.4966 30.0012 27.033 29.6139 26.9597 29.0728C26.9186 28.8114 26.9743 28.544 27.1163 28.3207C27.2583 28.0974 27.4769 27.9335 27.7311 27.8596C27.8598 27.825 27.9927 27.8089 28.1259 27.812H45.5327C46.2372 27.812 46.7154 28.2698 46.709 28.9235C46.7026 29.558 46.2253 30.003 45.5372 30.003C42.6355 30.003 39.7341 30.0024 36.833 30.0012Z" fill="black"/>
<path d="M36.833 30.0012H28.0939C27.4966 30.0012 27.033 29.6139 26.9597 29.0728C26.9186 28.8114 26.9743 28.544 27.1163 28.3207C27.2583 28.0974 27.4769 27.9335 27.7311 27.8596C27.8598 27.825 27.9927 27.8089 28.1259 27.812H45.5327C46.2372 27.812 46.7154 28.2698 46.709 28.9235C46.7026 29.558 46.2253 30.003 45.5372 30.003C42.6355 30.003 39.7341 30.0024 36.833 30.0012Z" stroke="black"/>
<path d="M36.8688 34.3887H45.5722C46.1686 34.3887 46.6321 34.7778 46.7036 35.3198C46.7442 35.5812 46.688 35.8484 46.5454 36.0712C46.4029 36.2941 46.1839 36.4573 45.9295 36.5302C45.8009 36.5654 45.6678 36.5814 45.5346 36.5778H28.1279C27.4243 36.5778 26.947 36.12 26.9543 35.4645C26.9616 34.83 27.4389 34.3878 28.1279 34.3878C31.0412 34.3871 33.9549 34.3875 36.8688 34.3887Z" fill="black"/>
<path d="M36.8688 34.3887H45.5722C46.1686 34.3887 46.6321 34.7778 46.7036 35.3198C46.7442 35.5812 46.688 35.8484 46.5454 36.0712C46.4029 36.2941 46.1839 36.4573 45.9295 36.5302C45.8009 36.5654 45.6678 36.5814 45.5346 36.5778H28.1279C27.4243 36.5778 26.947 36.12 26.9543 35.4645C26.9616 34.83 27.4389 34.3878 28.1279 34.3878C31.0412 34.3871 33.9549 34.3875 36.8688 34.3887Z" stroke="black"/>
<path d="M33.5248 23.3515H28.0408C27.7761 23.3549 27.5194 23.2607 27.3198 23.0869C27.1202 22.9131 26.9917 22.6719 26.9588 22.4093C26.9214 22.1475 26.9806 21.881 27.1254 21.6596C27.2702 21.4382 27.4908 21.277 27.7458 21.2063C27.8751 21.1738 28.0083 21.1596 28.1416 21.1642H38.9264C39.6401 21.1642 40.1174 21.6055 40.1174 22.2555C40.1174 22.9056 39.6419 23.3542 38.9264 23.3542C37.1271 23.3524 35.3266 23.3515 33.5248 23.3515Z" fill="black"/>
<path d="M33.5248 23.3515H28.0408C27.7761 23.3549 27.5194 23.2607 27.3198 23.0869C27.1202 22.9131 26.9917 22.6719 26.9588 22.4093C26.9214 22.1475 26.9806 21.881 27.1254 21.6596C27.2702 21.4382 27.4908 21.277 27.7458 21.2063C27.8751 21.1738 28.0083 21.1596 28.1416 21.1642H38.9264C39.6401 21.1642 40.1174 21.6055 40.1174 22.2555C40.1174 22.9056 39.6419 23.3542 38.9264 23.3542C37.1271 23.3524 35.3266 23.3515 33.5248 23.3515Z" stroke="black"/>
<path d="M33.5384 43.1598H28.1653C27.4324 43.1598 26.9477 42.7139 26.955 42.0455C26.9624 41.3991 27.4433 40.9679 28.1643 40.9679H38.9116C39.6445 40.9679 40.1292 41.4138 40.1218 42.0822C40.1145 42.7231 39.6345 43.1589 38.9125 43.1598H33.5384Z" fill="black"/>
<path d="M33.5384 43.1598H28.1653C27.4324 43.1598 26.9477 42.7139 26.955 42.0455C26.9624 41.3991 27.4433 40.9679 28.1643 40.9679H38.9116C39.6445 40.9679 40.1292 41.4138 40.1218 42.0822C40.1145 42.7231 39.6345 43.1589 38.9125 43.1598H33.5384Z" stroke="black"/>
<defs>
<filter id="filter0_d_202_36" x="0" y="0" width="73.39" height="73.39" filterUnits="userSpaceOnUse" color-interpolation-filters="sRGB">
<feFlood flood-opacity="0" result="BackgroundImageFix"/>
<feColorMatrix in="SourceAlpha" type="matrix" values="0 0 0 0 0 0 0 0 0 0 0 0 0 0 0 0 0 0 127 0" result="hardAlpha"/>
<feOffset dy="4"/>
<feGaussianBlur stdDeviation="2"/>
<feComposite in2="hardAlpha" operator="out"/>
<feColorMatrix type="matrix" values="0 0 0 0 0 0 0 0 0 0 0 0 0 0 0 0 0 0 0.25 0"/>
<feBlend mode="normal" in2="BackgroundImageFix" result="effect1_dropShadow_202_36"/>
<feBlend mode="normal" in="SourceGraphic" in2="effect1_dropShadow_202_36" result="shape"/>
</filter>
</defs>
</svg>
