<svg width="74" height="74" viewBox="0 0 74 74" fill="none" xmlns="http://www.w3.org/2000/svg">
<g filter="url(#filter0_d_204_7)">
<circle cx="36.695" cy="32.695" r="32.695" fill="#FEFEFE"/>
</g>
<path d="M18 48.6647V16.7907C18.0239 16.7638 18.0428 16.7328 18.0559 16.6992C18.3646 15.0612 19.8332 13.9909 21.5097 14.0001C27.1782 14.0296 32.8476 14.018 38.5169 14.0063L38.8789 14.0056C39.3602 13.995 39.8386 14.081 40.286 14.2586C40.7334 14.4362 41.1406 14.7016 41.4835 15.0392C42.7777 16.2759 44.0765 17.5092 45.3798 18.7391C46.1668 19.4816 46.5443 20.3807 46.5397 21.4702C46.5291 23.8795 46.5309 26.2893 46.5328 28.6992C46.5335 29.6265 46.5342 30.5538 46.5342 31.4811V31.9536C46.8037 31.635 47.0655 31.3224 47.323 31.0149C47.9358 30.2834 48.5241 29.5811 49.1324 28.8965L49.1612 28.8641C49.5847 28.3877 50.0257 27.8918 50.5551 27.557C51.5775 26.9115 52.6962 26.9326 53.7497 27.514C54.817 28.1018 55.3887 29.043 55.4556 30.268C55.5087 31.266 55.0772 32.0717 54.4478 32.8106C51.8704 35.8478 49.3006 38.8903 46.7385 41.9379C46.6153 42.0951 46.5459 42.2877 46.5406 42.4873C46.5328 43.4873 46.5333 44.4885 46.5338 45.4891C46.5343 46.3646 46.5347 47.2397 46.5296 48.1135C46.5241 49.2488 46.0715 50.1818 45.1325 50.8208C44.8484 51.0109 44.5188 51.1374 44.1887 51.2641C44.0418 51.3205 43.8949 51.3768 43.7519 51.4389H20.7805C19.9376 51.2026 19.1433 50.8602 18.6596 50.093C18.4665 49.7911 18.3285 49.4535 18.1904 49.1153C18.1286 48.9641 18.0668 48.8129 18 48.6647ZM37.7557 16.2194C37.7217 16.2171 37.6937 16.2149 37.6698 16.213C37.6195 16.2091 37.587 16.2066 37.5542 16.2066H21.4227C20.6357 16.2066 20.196 16.6644 20.196 17.4756V47.9578C20.196 48.8075 20.6312 49.2479 21.4786 49.2479H43.0602C43.9058 49.2479 44.3428 48.8075 44.3428 47.9588V45.4006V44.7359C44.1242 44.8826 43.8976 45.0168 43.6639 45.1379C42.2741 45.7522 40.8834 46.3647 39.4826 46.9535C39.2567 47.0385 39.0108 47.0554 38.7754 47.002C38.1121 46.8454 37.8308 46.264 38.0095 45.5096C38.112 45.0779 38.2153 44.6463 38.3186 44.2147C38.4809 43.5361 38.6433 42.8576 38.8029 42.1787C38.9861 41.4078 39.1748 40.6479 39.7117 40.0198C41.183 38.2967 42.6449 36.5653 44.0972 34.8257C44.239 34.6533 44.3216 34.4398 44.3327 34.2169C44.3441 31.1773 44.3435 28.1383 44.343 25.099C44.3429 24.4589 44.3428 23.8188 44.3428 23.1787V22.7878H38.9449C38.2019 22.7878 37.7603 22.3501 37.7539 21.614V16.8264L37.7557 16.2194ZM44.8265 40.7706L50.873 33.6089L49.2121 32.2182L43.16 39.3743L44.8265 40.7706ZM44.078 20.5739L39.9746 16.658V20.5739H44.078ZM52.3095 31.927C52.3899 31.8286 52.4708 31.733 52.5508 31.6384C52.7445 31.4095 52.9327 31.1871 53.0929 30.9474C53.3952 30.4896 53.2761 29.9265 52.862 29.5694C52.4699 29.2343 51.8716 29.2133 51.4933 29.5694C51.2848 29.7652 51.0986 29.9841 50.9072 30.2091C50.8185 30.3134 50.7286 30.4191 50.6348 30.5244L52.3095 31.927ZM41.7418 41.069C41.1367 41.6192 41.0169 42.3262 40.8969 43.0339C40.842 43.358 40.7871 43.6822 40.6855 43.9916C40.9701 43.8443 41.2738 43.7357 41.5764 43.6274C42.2617 43.3824 42.9421 43.139 43.3863 42.4525L41.7418 41.069Z" fill="black"/>
<path d="M18 48.6647V16.7907C18.0239 16.7638 18.0428 16.7328 18.0559 16.6992C18.3646 15.0612 19.8332 13.9909 21.5097 14.0001C27.1782 14.0296 32.8476 14.018 38.5169 14.0063L38.8789 14.0056C39.3602 13.995 39.8386 14.081 40.286 14.2586C40.7334 14.4362 41.1406 14.7016 41.4835 15.0392C42.7777 16.2759 44.0765 17.5092 45.3798 18.7391C46.1668 19.4816 46.5443 20.3807 46.5397 21.4702C46.5291 23.8795 46.5309 26.2893 46.5328 28.6992C46.5335 29.6265 46.5342 30.5538 46.5342 31.4811V31.9536C46.8037 31.635 47.0655 31.3224 47.323 31.0149C47.9358 30.2834 48.5241 29.5811 49.1324 28.8965L49.1612 28.8641C49.5847 28.3877 50.0257 27.8918 50.5551 27.557C51.5775 26.9115 52.6962 26.9326 53.7497 27.514C54.817 28.1018 55.3887 29.043 55.4556 30.268C55.5087 31.266 55.0772 32.0717 54.4478 32.8106C51.8704 35.8478 49.3006 38.8903 46.7385 41.9379C46.6153 42.0951 46.5459 42.2877 46.5406 42.4873C46.5328 43.4873 46.5333 44.4885 46.5338 45.4891C46.5343 46.3646 46.5347 47.2397 46.5296 48.1135C46.5241 49.2488 46.0715 50.1818 45.1325 50.8208C44.8484 51.0109 44.5188 51.1374 44.1887 51.2641C44.0418 51.3205 43.8949 51.3768 43.7519 51.4389H20.7805C19.9376 51.2026 19.1433 50.8602 18.6596 50.093C18.4665 49.7911 18.3285 49.4535 18.1904 49.1153C18.1286 48.9641 18.0668 48.8129 18 48.6647ZM37.7557 16.2194C37.7217 16.2171 37.6937 16.2149 37.6698 16.213C37.6195 16.2091 37.587 16.2066 37.5542 16.2066H21.4227C20.6357 16.2066 20.196 16.6644 20.196 17.4756V47.9578C20.196 48.8075 20.6312 49.2479 21.4786 49.2479H43.0602C43.9058 49.2479 44.3428 48.8075 44.3428 47.9588V45.4006V44.7359C44.1242 44.8826 43.8976 45.0168 43.6639 45.1379C42.2741 45.7522 40.8834 46.3647 39.4826 46.9535C39.2567 47.0385 39.0108 47.0554 38.7754 47.002C38.1121 46.8454 37.8308 46.264 38.0095 45.5096C38.112 45.0779 38.2153 44.6463 38.3186 44.2147C38.4809 43.5361 38.6433 42.8576 38.8029 42.1787C38.9861 41.4078 39.1748 40.6479 39.7117 40.0198C41.183 38.2967 42.6449 36.5653 44.0972 34.8257C44.239 34.6533 44.3216 34.4398 44.3327 34.2169C44.3441 31.1773 44.3435 28.1383 44.343 25.099C44.3429 24.4589 44.3428 23.8188 44.3428 23.1787V22.7878H38.9449C38.2019 22.7878 37.7603 22.3501 37.7539 21.614V16.8264L37.7557 16.2194ZM44.8265 40.7706L50.873 33.6089L49.2121 32.2182L43.16 39.3743L44.8265 40.7706ZM44.078 20.5739L39.9746 16.658V20.5739H44.078ZM52.3095 31.927C52.3899 31.8286 52.4708 31.733 52.5508 31.6384C52.7445 31.4095 52.9327 31.1871 53.0929 30.9474C53.3952 30.4896 53.2761 29.9265 52.862 29.5694C52.4699 29.2343 51.8716 29.2133 51.4933 29.5694C51.2848 29.7652 51.0986 29.9841 50.9072 30.2091C50.8185 30.3134 50.7286 30.4191 50.6348 30.5244L52.3095 31.927ZM41.7418 41.069C41.1367 41.6192 41.0169 42.3262 40.8969 43.0339C40.842 43.358 40.7871 43.6822 40.6855 43.9916C40.9701 43.8443 41.2738 43.7357 41.5764 43.6274C42.2617 43.3824 42.9421 43.139 43.3863 42.4525L41.7418 41.069Z" stroke="black"/>
<path d="M18 48.6647C18.0672 48.8137 18.1294 48.9659 18.1916 49.1181C18.3296 49.4554 18.4675 49.7928 18.6594 50.0962C19.143 50.8632 19.9416 51.2055 20.7796 51.4416H18V48.6647Z" fill="white"/>
<path d="M18 48.6647C18.0672 48.8137 18.1294 48.9659 18.1916 49.1181C18.3296 49.4554 18.4675 49.7928 18.6594 50.0962C19.143 50.8632 19.9416 51.2055 20.7796 51.4416H18V48.6647Z" stroke="black"/>
<path d="M37.7558 16.2195V16.8229V21.6105C37.7558 22.3429 38.1992 22.7833 38.9467 22.7842H44.3447V23.1788C44.3447 26.8585 44.3447 30.5373 44.3346 34.217C44.3234 34.4399 44.2409 34.6534 44.0991 34.8259C42.648 36.5655 41.1861 38.2968 39.7135 40.0199C39.1767 40.648 38.9861 41.4079 38.8047 42.1789C38.6451 42.8579 38.4827 43.5367 38.3203 44.2155C38.2171 44.6468 38.1139 45.0782 38.0114 45.5097C37.8281 46.2642 38.114 46.8455 38.7773 47.0021C39.0127 47.0555 39.2586 47.0387 39.4845 46.9536C40.8853 46.3649 42.276 45.7523 43.6658 45.138C43.8995 45.0169 44.1261 44.8827 44.3447 44.7361V45.4026V47.9607C44.3447 48.814 43.9086 49.2499 43.0621 49.2499H21.4805C20.6358 49.2499 20.1979 48.8095 20.1979 47.9598V17.4775C20.1979 16.67 20.6376 16.2095 21.4246 16.2086C26.7993 16.2049 32.1764 16.2049 37.556 16.2086C37.5906 16.2072 37.6257 16.2099 37.6844 16.2143C37.705 16.2159 37.7284 16.2176 37.7558 16.2195ZM32.2699 29.4377H40.9732C41.6613 29.4377 42.1386 28.9927 42.145 28.3582C42.1514 27.7036 41.6732 27.2477 40.9687 27.2467H23.5619C23.4287 27.2436 23.2958 27.2597 23.1671 27.2943C22.9129 27.3682 22.6943 27.5321 22.5523 27.7554C22.4103 27.9787 22.3546 28.2461 22.3957 28.5075C22.469 29.0486 22.9326 29.435 23.5299 29.4359C26.4432 29.4383 29.3566 29.4389 32.2699 29.4377ZM32.3047 33.8251H23.5647C22.8758 33.8251 22.3985 34.2674 22.3911 34.9019C22.3838 35.5565 22.8611 36.0152 23.5647 36.0152H40.9714C41.1047 36.0188 41.2377 36.0028 41.3663 35.9676C41.6207 35.8947 41.8397 35.7315 41.9822 35.5086C42.1248 35.2858 42.181 35.0186 42.1404 34.7572C42.0689 34.2152 41.6054 33.827 41.009 33.8261C38.1072 33.8236 35.2061 33.8233 32.3056 33.8251H32.3047ZM28.9617 22.7879H34.3724C35.0834 22.7879 35.5634 22.342 35.5634 21.6892C35.5634 21.0364 35.0815 20.5987 34.3724 20.5978H23.5876C23.4544 20.5933 23.3211 20.6075 23.1918 20.6399C22.9368 20.7107 22.7163 20.8718 22.5714 21.0932C22.4266 21.3146 22.3674 21.5812 22.4049 21.843C22.4377 22.1055 22.5662 22.3467 22.7658 22.5205C22.9654 22.6943 23.2221 22.7885 23.4868 22.7851C25.3054 22.7879 27.134 22.7879 28.9617 22.7879ZM28.9754 42.5991H34.3495C35.0715 42.5991 35.5515 42.167 35.5588 41.5215C35.5662 40.8531 35.0852 40.4072 34.3486 40.4072H23.6023C22.8813 40.4072 22.4003 40.8385 22.393 41.4849C22.3856 42.1532 22.8666 42.5982 23.6032 42.5991H28.9754Z" fill="white"/>
<path d="M37.7558 16.2195V16.8229V21.6105C37.7558 22.3429 38.1992 22.7833 38.9467 22.7842H44.3447V23.1788C44.3447 26.8585 44.3447 30.5373 44.3346 34.217C44.3234 34.4399 44.2409 34.6534 44.0991 34.8259C42.648 36.5655 41.1861 38.2968 39.7135 40.0199C39.1767 40.648 38.9861 41.4079 38.8047 42.1789C38.6451 42.8579 38.4827 43.5367 38.3203 44.2155C38.2171 44.6468 38.1139 45.0782 38.0114 45.5097C37.8281 46.2642 38.114 46.8455 38.7773 47.0021C39.0127 47.0555 39.2586 47.0387 39.4845 46.9536C40.8853 46.3649 42.276 45.7523 43.6658 45.138C43.8995 45.0169 44.1261 44.8827 44.3447 44.7361V45.4026V47.9607C44.3447 48.814 43.9086 49.2499 43.0621 49.2499H21.4805C20.6358 49.2499 20.1979 48.8095 20.1979 47.9598V17.4775C20.1979 16.67 20.6376 16.2095 21.4246 16.2086C26.7993 16.2049 32.1764 16.2049 37.556 16.2086C37.5906 16.2072 37.6257 16.2099 37.6844 16.2143C37.705 16.2159 37.7284 16.2176 37.7558 16.2195ZM32.2699 29.4377H40.9732C41.6613 29.4377 42.1386 28.9927 42.145 28.3582C42.1514 27.7036 41.6732 27.2477 40.9687 27.2467H23.5619C23.4287 27.2436 23.2958 27.2597 23.1671 27.2943C22.9129 27.3682 22.6943 27.5321 22.5523 27.7554C22.4103 27.9787 22.3546 28.2461 22.3957 28.5075C22.469 29.0486 22.9326 29.435 23.5299 29.4359C26.4432 29.4383 29.3566 29.4389 32.2699 29.4377ZM32.3047 33.8251H23.5647C22.8758 33.8251 22.3985 34.2674 22.3911 34.9019C22.3838 35.5565 22.8611 36.0152 23.5647 36.0152H40.9714C41.1047 36.0188 41.2377 36.0028 41.3663 35.9676C41.6207 35.8947 41.8397 35.7315 41.9822 35.5086C42.1248 35.2858 42.181 35.0186 42.1404 34.7572C42.0689 34.2152 41.6054 33.827 41.009 33.8261C38.1072 33.8236 35.2061 33.8233 32.3056 33.8251H32.3047ZM28.9617 22.7879H34.3724C35.0834 22.7879 35.5634 22.342 35.5634 21.6892C35.5634 21.0364 35.0815 20.5987 34.3724 20.5978H23.5876C23.4544 20.5933 23.3211 20.6075 23.1918 20.6399C22.9368 20.7107 22.7163 20.8718 22.5714 21.0932C22.4266 21.3146 22.3674 21.5812 22.4049 21.843C22.4377 22.1055 22.5662 22.3467 22.7658 22.5205C22.9654 22.6943 23.2221 22.7885 23.4868 22.7851C25.3054 22.7879 27.134 22.7879 28.9617 22.7879ZM28.9754 42.5991H34.3495C35.0715 42.5991 35.5515 42.167 35.5588 41.5215C35.5662 40.8531 35.0852 40.4072 34.3486 40.4072H23.6023C22.8813 40.4072 22.4003 40.8385 22.393 41.4849C22.3856 42.1532 22.8666 42.5982 23.6032 42.5991H28.9754Z" stroke="black"/>
<path d="M44.8266 40.7705L43.1602 39.3715L49.2122 32.2181L50.875 33.6116L44.8266 40.7705Z" fill="white"/>
<path d="M44.8266 40.7705L43.1602 39.3715L49.2122 32.2181L50.875 33.6116L44.8266 40.7705Z" stroke="black"/>
<path d="M44.0779 20.5739H39.9745V16.658L44.0779 20.5739Z" fill="white"/>
<path d="M44.0779 20.5739H39.9745V16.658L44.0779 20.5739Z" stroke="black"/>
<path d="M52.3089 31.9226L50.6348 30.5186C50.729 30.4128 50.8189 30.3066 50.9077 30.2018C51.0977 29.9775 51.2825 29.7592 51.4929 29.564C51.8712 29.2098 52.4692 29.2308 52.8612 29.564C53.2797 29.9209 53.3942 30.4875 53.092 30.9415C52.935 31.1791 52.7501 31.3973 52.5605 31.6212C52.4769 31.7199 52.3924 31.8196 52.3089 31.9226Z" fill="white"/>
<path d="M52.3089 31.9226L50.6348 30.5186C50.729 30.4128 50.8189 30.3066 50.9077 30.2018C51.0977 29.9775 51.2825 29.7592 51.4929 29.564C51.8712 29.2098 52.4692 29.2308 52.8612 29.564C53.2797 29.9209 53.3942 30.4875 53.092 30.9415C52.935 31.1791 52.7501 31.3973 52.5605 31.6212C52.4769 31.7199 52.3924 31.8196 52.3089 31.9226Z" stroke="black"/>
<path d="M41.7416 41.0691L43.3901 42.4521C42.9453 43.1372 42.2652 43.3809 41.5803 43.6264C41.2779 43.7348 40.9746 43.8435 40.6902 43.9907C40.7897 43.6833 40.8435 43.3613 40.8972 43.0393C41.0158 42.3298 41.1343 41.6206 41.7416 41.0691Z" fill="white"/>
<path d="M41.7416 41.0691L43.3901 42.4521C42.9453 43.1372 42.2652 43.3809 41.5803 43.6264C41.2779 43.7348 40.9746 43.8435 40.6902 43.9907C40.7897 43.6833 40.8435 43.3613 40.8972 43.0393C41.0158 42.3298 41.1343 41.6206 41.7416 41.0691Z" stroke="black"/>
<path d="M32.2697 29.4376H23.5306C22.9333 29.4376 22.4698 29.0503 22.3965 28.5092C22.3554 28.2478 22.4111 27.9804 22.5531 27.7571C22.6951 27.5338 22.9136 27.3699 23.1679 27.296C23.2965 27.2614 23.4295 27.2453 23.5627 27.2484H40.9694C41.6739 27.2484 42.1522 27.7062 42.1458 28.3599C42.1393 28.9944 41.662 29.4394 40.974 29.4394C38.0723 29.4394 35.1709 29.4388 32.2697 29.4376Z" fill="black"/>
<path d="M32.2697 29.4376H23.5306C22.9333 29.4376 22.4698 29.0503 22.3965 28.5092C22.3554 28.2478 22.4111 27.9804 22.5531 27.7571C22.6951 27.5338 22.9136 27.3699 23.1679 27.296C23.2965 27.2614 23.4295 27.2453 23.5627 27.2484H40.9694C41.6739 27.2484 42.1522 27.7062 42.1458 28.3599C42.1393 28.9944 41.662 29.4394 40.974 29.4394C38.0723 29.4394 35.1709 29.4388 32.2697 29.4376Z" stroke="black"/>
<path d="M32.3056 33.8251H41.0089C41.6053 33.8251 42.0689 34.2142 42.1404 34.7562C42.181 35.0176 42.1247 35.2848 41.9822 35.5076C41.8396 35.7305 41.6206 35.8937 41.3662 35.9666C41.2377 36.0018 41.1046 36.0178 40.9714 36.0142H23.5647C22.8611 36.0142 22.3837 35.5564 22.3911 34.9009C22.3984 34.2664 22.8757 33.8242 23.5647 33.8242C26.478 33.8235 29.3916 33.8239 32.3056 33.8251Z" fill="black"/>
<path d="M32.3056 33.8251H41.0089C41.6053 33.8251 42.0689 34.2142 42.1404 34.7562C42.181 35.0176 42.1247 35.2848 41.9822 35.5076C41.8396 35.7305 41.6206 35.8937 41.3662 35.9666C41.2377 36.0018 41.1046 36.0178 40.9714 36.0142H23.5647C22.8611 36.0142 22.3837 35.5564 22.3911 34.9009C22.3984 34.2664 22.8757 33.8242 23.5647 33.8242C26.478 33.8235 29.3916 33.8239 32.3056 33.8251Z" stroke="black"/>
<path d="M28.9616 22.7879H23.4776C23.2129 22.7913 22.9562 22.6971 22.7566 22.5233C22.557 22.3495 22.4285 22.1083 22.3956 21.8457C22.3581 21.5839 22.4174 21.3174 22.5622 21.096C22.707 20.8746 22.9275 20.7134 23.1826 20.6427C23.3119 20.6102 23.4451 20.596 23.5784 20.6006H34.3632C35.0769 20.6006 35.5542 21.0419 35.5542 21.6919C35.5542 22.342 35.0787 22.7906 34.3632 22.7906C32.5639 22.7888 30.7634 22.7879 28.9616 22.7879Z" fill="black"/>
<path d="M28.9616 22.7879H23.4776C23.2129 22.7913 22.9562 22.6971 22.7566 22.5233C22.557 22.3495 22.4285 22.1083 22.3956 21.8457C22.3581 21.5839 22.4174 21.3174 22.5622 21.096C22.707 20.8746 22.9275 20.7134 23.1826 20.6427C23.3119 20.6102 23.4451 20.596 23.5784 20.6006H34.3632C35.0769 20.6006 35.5542 21.0419 35.5542 21.6919C35.5542 22.342 35.0787 22.7906 34.3632 22.7906C32.5639 22.7888 30.7634 22.7879 28.9616 22.7879Z" stroke="black"/>
<path d="M28.9752 42.5962H23.602C22.8691 42.5962 22.3845 42.1503 22.3918 41.4819C22.3991 40.8355 22.8801 40.4043 23.6011 40.4043H34.3484C35.0813 40.4043 35.5659 40.8502 35.5586 41.5186C35.5513 42.1595 35.0712 42.5953 34.3493 42.5962H28.9752Z" fill="black"/>
<path d="M28.9752 42.5962H23.602C22.8691 42.5962 22.3845 42.1503 22.3918 41.4819C22.3991 40.8355 22.8801 40.4043 23.6011 40.4043H34.3484C35.0813 40.4043 35.5659 40.8502 35.5586 41.5186C35.5513 42.1595 35.0712 42.5953 34.3493 42.5962H28.9752Z" stroke="black"/>
<defs>
<filter id="filter0_d_204_7" x="0" y="0" width="73.39" height="73.39" filterUnits="userSpaceOnUse" color-interpolation-filters="sRGB">
<feFlood flood-opacity="0" result="BackgroundImageFix"/>
<feColorMatrix in="SourceAlpha" type="matrix" values="0 0 0 0 0 0 0 0 0 0 0 0 0 0 0 0 0 0 127 0" result="hardAlpha"/>
<feOffset dy="4"/>
<feGaussianBlur stdDeviation="2"/>
<feComposite in2="hardAlpha" operator="out"/>
<feColorMatrix type="matrix" values="0 0 0 0 0 0 0 0 0 0 0 0 0 0 0 0 0 0 0.25 0"/>
<feBlend mode="normal" in2="BackgroundImageFix" result="effect1_dropShadow_204_7"/>
<feBlend mode="normal" in="SourceGraphic" in2="effect1_dropShadow_204_7" result="shape"/>
</filter>
</defs>
</svg>
